<svg width="222" height="222" viewBox="0 0 222 222" fill="none" xmlns="http://www.w3.org/2000/svg">
<path d="M74.222 27.7592L146.585 27.75C147.787 27.75 148.971 27.7685 150.137 28.0183L151.284 28.3513C155.424 29.4392 159.059 31.9294 161.569 35.3973C164.079 38.8653 165.308 43.0963 165.048 47.3692L164.9 48.8678L163.438 59.0798L173.234 61.5218C178.964 62.9543 184.087 66.1775 187.858 70.7225C191.63 75.2675 193.853 80.8972 194.204 86.7928L194.25 88.4485V166.5C194.25 173.578 191.546 180.389 186.69 185.539C181.834 190.689 175.194 193.788 168.128 194.204L166.5 194.25H55.5C48.4218 194.25 41.611 191.546 36.4611 186.69C31.3112 181.834 28.2115 175.194 27.7963 168.128L27.75 166.5V88.4485C27.7496 82.5431 29.6332 76.7916 33.1267 72.0304C36.6203 67.2692 41.5416 63.7466 47.175 61.975L48.766 61.5218L58.5617 59.0798L57.1002 48.8678C56.4913 44.6166 57.3804 40.2861 59.6149 36.6188C61.8494 32.9514 65.2902 30.1757 69.3473 28.7675L70.7163 28.3513C71.854 27.9165 73.0288 27.7962 74.222 27.7592ZM160.802 77.4872L158.064 96.7087C157.754 98.8859 156.931 100.958 155.662 102.755C154.394 104.551 152.717 106.02 150.769 107.041C148.821 108.062 146.658 108.605 144.459 108.626C142.26 108.647 140.088 108.145 138.121 107.161L120.25 98.2072V175.75H166.5C168.953 175.75 171.306 174.775 173.041 173.041C174.775 171.306 175.75 168.953 175.75 166.5V88.4485C175.749 86.3852 175.059 84.3813 173.789 82.7555C172.518 81.1297 170.741 79.9753 168.739 79.476L160.802 77.4872ZM61.1887 77.4872L53.2523 79.4667C51.4267 79.9253 49.7844 80.9299 48.5448 82.3463C47.3052 83.7628 46.5272 85.5237 46.3148 87.394L46.25 88.4485V166.5C46.2503 168.766 47.0821 170.952 48.5876 172.645C50.0931 174.339 52.1677 175.42 54.4177 175.685L55.5 175.75H101.75V98.2165L83.879 107.152C82.0045 108.09 79.9417 108.591 77.8456 108.618C75.7496 108.645 73.6747 108.196 71.7769 107.306C69.879 106.416 68.2076 105.107 66.888 103.479C65.5684 101.85 64.6351 99.9432 64.158 97.902L63.936 96.6995L61.1887 77.4872ZM157.25 129.5C159.703 129.5 162.056 130.475 163.791 132.209C165.525 133.944 166.5 136.297 166.5 138.75C166.5 141.203 165.525 143.556 163.791 145.291C162.056 147.025 159.703 148 157.25 148H148C145.547 148 143.194 147.025 141.459 145.291C139.725 143.556 138.75 141.203 138.75 138.75C138.75 136.297 139.725 133.944 141.459 132.209C143.194 130.475 145.547 129.5 148 129.5H157.25ZM145.317 55.167L125.365 80.105L140.646 87.7455L145.299 55.1855L145.317 55.167ZM76.6825 55.167L81.3445 87.7362L96.6255 80.0958L76.6918 55.167H76.6825ZM128.76 46.25H93.24L111 68.45L128.76 46.25Z" fill="black"/>
</svg>
