<svg width="205" height="205" viewBox="0 0 205 205" fill="none" xmlns="http://www.w3.org/2000/svg">
<path fill-rule="evenodd" clip-rule="evenodd" d="M14.6428 21.9643C14.6428 16.139 16.9569 10.5523 21.076 6.43319C25.1951 2.31409 30.7818 0 36.6071 0L168.393 0C174.218 0 179.805 2.31409 183.924 6.43319C188.043 10.5523 190.357 16.139 190.357 21.9643V36.3289H14.6428V21.9643ZM14.6428 54.6325V183.036C14.6428 188.861 16.9569 194.448 21.076 198.567C25.1951 202.686 30.7818 205 36.6071 205H168.393C174.218 205 179.805 202.686 183.924 198.567C188.043 194.448 190.357 188.861 190.357 183.036V54.6325H14.6428ZM49.6685 124.464C49.6657 118.469 50.6858 112.516 52.685 106.864C57.0941 94.3793 66.0289 84.0049 77.7214 77.7932C89.4138 71.5815 103.012 69.9851 115.825 73.32C128.638 76.6548 139.733 84.6779 146.914 95.8016C154.094 106.925 156.838 120.339 154.601 133.389C152.365 146.439 145.311 158.174 134.836 166.271C124.362 174.369 111.229 178.24 98.0362 177.118C84.8438 175.996 72.5531 169.963 63.5963 160.212C54.6395 150.462 49.669 137.704 49.6685 124.464ZM65.9221 120.071C66.2094 118.365 67.0922 116.815 68.4137 115.697C69.7353 114.579 71.4101 113.966 73.141 113.965H78.3246C89.5264 113.965 96.0864 116.704 101.987 119.149L102.866 119.515C108.386 121.814 113.965 123.966 124.991 123.966H132.269C133.332 123.967 134.382 124.199 135.346 124.646C136.31 125.093 137.165 125.745 137.852 126.556C138.539 127.367 139.041 128.317 139.324 129.342C139.606 130.366 139.662 131.44 139.488 132.489C137.677 142.091 132.172 150.599 124.155 156.186C116.138 161.772 106.249 163.991 96.6143 162.365C86.9791 160.738 78.3665 155.397 72.6274 147.489C66.8883 139.58 64.4807 129.736 65.9221 120.071Z" fill="black"/>
</svg>
