<svg width="204" height="204" viewBox="0 0 204 204" fill="none" xmlns="http://www.w3.org/2000/svg">
<path d="M76.5 12.75C68.5867 12.7459 60.8669 15.1962 54.4045 19.7632C47.9421 24.3303 43.0553 30.7893 40.4175 38.25H0V63.75H40.4175C43.0517 71.2155 47.9367 77.6802 54.3991 82.2529C60.8616 86.8257 68.5834 89.2812 76.5 89.2812C84.4166 89.2812 92.1384 86.8257 98.6009 82.2529C105.063 77.6802 109.948 71.2155 112.582 63.75H204V38.25H112.582C109.945 30.7893 105.058 24.3303 98.5955 19.7632C92.1331 15.1962 84.4133 12.7459 76.5 12.75ZM63.75 51C63.75 47.6185 65.0933 44.3755 67.4844 41.9844C69.8755 39.5933 73.1185 38.25 76.5 38.25C79.8815 38.25 83.1245 39.5933 85.5156 41.9844C87.9067 44.3755 89.25 47.6185 89.25 51C89.25 54.3815 87.9067 57.6245 85.5156 60.0156C83.1245 62.4067 79.8815 63.75 76.5 63.75C73.1185 63.75 69.8755 62.4067 67.4844 60.0156C65.0933 57.6245 63.75 54.3815 63.75 51ZM127.5 114.75C119.587 114.746 111.867 117.196 105.404 121.763C98.9421 126.33 94.0553 132.789 91.4175 140.25H0V165.75H91.4175C94.0517 173.216 98.9367 179.68 105.399 184.253C111.862 188.826 119.583 191.281 127.5 191.281C135.417 191.281 143.138 188.826 149.601 184.253C156.063 179.68 160.948 173.216 163.583 165.75H204V140.25H163.583C160.945 132.789 156.058 126.33 149.596 121.763C143.133 117.196 135.413 114.746 127.5 114.75ZM114.75 153C114.75 149.618 116.093 146.375 118.484 143.984C120.875 141.593 124.118 140.25 127.5 140.25C130.882 140.25 134.125 141.593 136.516 143.984C138.907 146.375 140.25 149.618 140.25 153C140.25 156.382 138.907 159.625 136.516 162.016C134.125 164.407 130.882 165.75 127.5 165.75C124.118 165.75 120.875 164.407 118.484 162.016C116.093 159.625 114.75 156.382 114.75 153Z" fill="#151414"/>
</svg>
