<svg width="200" height="200" viewBox="0 0 200 200" fill="none" xmlns="http://www.w3.org/2000/svg">
<path d="M133.333 8.33337C135.544 8.33337 137.663 9.21135 139.226 10.7742C140.789 12.337 141.667 14.4566 141.667 16.6667V25H183.333V75H166.508L189.392 137.875C191.023 142.105 191.774 146.623 191.599 151.153C191.424 155.683 190.327 160.13 188.375 164.222C186.423 168.313 183.656 171.964 180.245 174.949C176.834 177.935 172.849 180.194 168.535 181.587C164.221 182.981 159.669 183.479 155.155 183.053C150.642 182.627 146.263 181.284 142.286 179.107C138.309 176.931 134.819 173.966 132.027 170.394C129.235 166.822 127.201 162.718 126.05 158.333H90.6168C88.7228 165.647 84.4016 172.101 78.3608 176.639C72.3201 181.176 64.9177 183.528 57.3658 183.309C49.814 183.09 42.5602 180.314 36.7922 175.434C31.0243 170.555 27.0841 163.861 25.6168 156.45C22.9162 155.039 20.654 152.915 19.076 150.309C17.4981 147.703 16.6648 144.714 16.6668 141.667V58.3334C16.6668 56.1232 17.5447 54.0036 19.1075 52.4408C20.6703 50.878 22.7899 50 25.0001 50H83.3334C85.5436 50 87.6632 50.878 89.226 52.4408C90.7888 54.0036 91.6668 56.1232 91.6668 58.3334V100C91.6668 102.21 92.5447 104.33 94.1075 105.893C95.6703 107.455 97.7899 108.333 100 108.333H116.667C118.877 108.333 120.997 107.455 122.559 105.893C124.122 104.33 125 102.21 125 100V25H100V8.33337H133.333ZM158.333 133.333C154.789 133.334 151.337 134.465 148.48 136.562C145.622 138.658 143.507 141.611 142.442 144.992C141.377 148.372 141.417 152.004 142.557 155.36C143.697 158.716 145.877 161.621 148.781 163.654C151.684 165.686 155.16 166.74 158.704 166.663C162.247 166.585 165.673 165.38 168.485 163.222C171.297 161.064 173.348 158.066 174.339 154.664C175.331 151.261 175.212 147.631 174 144.3L173.858 143.933C172.638 140.81 170.503 138.127 167.733 136.236C164.963 134.345 161.687 133.333 158.333 133.333ZM58.3334 133.333C53.9131 133.333 49.6739 135.089 46.5483 138.215C43.4227 141.341 41.6668 145.58 41.6668 150C41.6668 154.42 43.4227 158.66 46.5483 161.785C49.6739 164.911 53.9131 166.667 58.3334 166.667C62.7537 166.667 66.9929 164.911 70.1185 161.785C73.2441 158.66 75.0001 154.42 75.0001 150C75.0001 145.58 73.2441 141.341 70.1185 138.215C66.9929 135.089 62.7537 133.333 58.3334 133.333ZM75.0001 66.6667H33.3334V83.3334H75.0001V66.6667ZM166.667 41.6667H141.667V58.3334H166.667V41.6667Z" fill="black"/>
</svg>
