<svg width="200" height="200" viewBox="0 0 200 200" fill="none" xmlns="http://www.w3.org/2000/svg">
<path d="M16.6667 183.333C16.6667 167.917 18.7167 154.758 22.8167 143.858C26.9167 132.958 32.1556 123.894 38.5334 116.667C44.9112 109.439 52.0667 103.847 60.0001 99.8916C67.9334 95.9361 75.7112 93.1944 83.3334 91.6666V66.6666C64.3056 64.3055 48.439 58.4361 35.7334 49.0583C23.0279 39.6805 16.6723 28.8833 16.6667 16.6666H183.333C183.333 28.8888 176.981 39.6888 164.275 49.0666C151.57 58.4444 135.7 64.3111 116.667 66.6666V91.6666C124.306 93.1944 132.083 95.9388 140 99.9C147.917 103.861 155.07 109.45 161.458 116.667C167.847 123.883 173.092 132.947 177.192 143.858C181.292 154.769 183.339 167.928 183.333 183.333H133.333V166.667H165.625C163.125 145.556 155.242 130.278 141.975 120.833C128.708 111.389 114.717 106.667 100 106.667C85.2834 106.667 71.289 111.389 58.0168 120.833C44.7445 130.278 36.864 145.556 34.3751 166.667H66.6668V183.333H16.6667ZM133.75 45.9416C143.611 42.5361 151.458 38.3333 157.292 33.3333H42.7084C48.5417 38.3333 56.389 42.5361 66.2501 45.9416C76.1112 49.3472 87.3612 51.0472 100 51.0416C112.639 51.0361 123.889 49.3361 133.75 45.9416ZM100 183.333C95.4168 183.333 91.4945 181.703 88.2334 178.442C84.9723 175.181 83.339 171.256 83.3334 166.667C83.3334 164.306 83.7862 162.153 84.6918 160.208C85.5973 158.264 86.8112 156.528 88.3334 155C91.6668 151.667 97.2918 148.158 105.208 144.475C113.125 140.792 122.5 137.078 133.333 133.333C129.445 144.167 125.695 153.542 122.083 161.458C118.472 169.375 115 175 111.667 178.333C110.139 179.861 108.403 181.078 106.458 181.983C104.514 182.889 102.361 183.339 100 183.333Z" fill="black"/>
</svg>
