<svg width="234" height="234" viewBox="0 0 234 234" fill="none" xmlns="http://www.w3.org/2000/svg">
<path d="M58.5 136.256V107.006L40.2188 117L10.9688 66.3L75.3187 29.25H87.75C90.35 37.05 93.4375 43.875 97.0125 49.725C100.588 55.575 107.25 58.5 117 58.5C126.75 58.5 133.412 55.575 136.988 49.725C140.562 43.875 143.65 37.05 146.25 29.25H158.681L222.788 66.5437L193.781 117L175.5 107.006V153.806L160.144 167.212C159.006 168.188 157.706 168.961 156.244 169.533C154.781 170.105 153.319 170.388 151.856 170.381C150.881 170.381 149.744 170.056 148.444 169.406C147.144 168.756 145.844 167.944 144.544 166.969L118.706 144.788C113.506 140.238 107.656 136.906 101.156 134.794C94.6562 132.681 88.075 131.625 81.4125 131.625C77.5125 131.625 73.6515 131.992 69.8295 132.727C66.0075 133.461 62.231 134.638 58.5 136.256ZM45.3375 188.906L32.6625 174.038L53.8688 156C57.6063 152.75 61.8735 150.27 66.6705 148.561C71.4675 146.851 76.4628 146 81.6562 146.006C86.8497 146.013 91.806 146.868 96.525 148.57C101.244 150.273 105.469 152.75 109.2 156L137.475 180.131C139.425 181.756 141.742 183.017 144.427 183.914C147.111 184.811 149.831 185.257 152.587 185.25C155.512 185.25 158.236 184.844 160.758 184.031C163.28 183.219 165.513 181.919 167.456 180.131L188.663 161.85L201.337 176.962L180.131 195C176.394 198.25 172.169 200.688 167.456 202.312C162.744 203.938 157.787 204.75 152.587 204.75C147.387 204.75 142.392 203.938 137.602 202.312C132.811 200.688 128.544 198.25 124.8 195L96.525 170.869C94.575 169.244 92.3423 167.986 89.8268 167.096C87.3113 166.205 84.5878 165.757 81.6562 165.75C78.8938 165.75 76.1735 166.199 73.4955 167.096C70.8175 167.993 68.5002 169.25 66.5437 170.869L45.3375 188.906Z" fill="black"/>
</svg>
